<svg xmlns="http://www.w3.org/2000/svg" xmlns:xlink="http://www.w3.org/1999/xlink" width="100" zoomAndPan="magnify" viewBox="0 0 75 74.999997" height="100" preserveAspectRatio="xMidYMid meet" version="1.0"><defs><g/></defs><path stroke-linecap="butt" transform="matrix(-0.75, 0, 0, -0.75, 67.434723, 27.860612)" fill="none" stroke-linejoin="miter" d="M 0.00150592 1.50165 L 23.991091 1.50165 " stroke="#ffa132" stroke-width="3" stroke-opacity="1" stroke-miterlimit="4"/><path stroke-linecap="butt" transform="matrix(0, -0.75, 0.75, 0, 65.246027, 43.879757)" fill="none" stroke-linejoin="miter" d="M 0.00113436 1.50009 L 23.433428 1.50009 " stroke="#03798e" stroke-width="3" stroke-opacity="1" stroke-miterlimit="4"/><g fill="#03798e" fill-opacity="1"><g transform="translate(14.99345, 42.38373)"><g><path d="M 1.71875 -5.078125 L 0 -5.078125 L 0 -8.875 C 0 -8.9375 0.0390625 -8.96875 0.125 -8.96875 L 1.59375 -8.96875 C 1.675781 -8.96875 1.71875 -8.9375 1.71875 -8.875 Z M 6.703125 -8.96875 C 6.785156 -8.96875 6.828125 -8.9375 6.828125 -8.875 L 6.828125 -0.09375 C 6.828125 -0.03125 6.785156 0 6.703125 0 L 5.234375 0 C 5.148438 0 5.109375 -0.03125 5.109375 -0.09375 L 5.109375 -1.6875 L 1.71875 -1.6875 L 1.71875 -0.09375 C 1.71875 -0.03125 1.675781 0 1.59375 0 L 0.125 0 C 0.0390625 0 0 -0.03125 0 -0.09375 L 0 -3.359375 L 5.109375 -3.359375 L 5.109375 -8.875 C 5.109375 -8.9375 5.148438 -8.96875 5.234375 -8.96875 Z M 6.703125 -8.96875 "/></g></g></g><g fill="#03798e" fill-opacity="1"><g transform="translate(22.170954, 42.38373)"><g><path d="M 6.625 -8.96875 C 6.695312 -8.96875 6.734375 -8.9375 6.734375 -8.875 L 6.734375 -3 C 6.734375 -2.363281 6.582031 -1.820312 6.28125 -1.375 C 5.988281 -0.925781 5.585938 -0.582031 5.078125 -0.34375 C 4.566406 -0.113281 3.992188 0 3.359375 0 C 2.753906 0 2.191406 -0.117188 1.671875 -0.359375 C 1.160156 -0.609375 0.753906 -0.957031 0.453125 -1.40625 C 0.148438 -1.851562 0 -2.382812 0 -3 L 0 -7.34375 L 1.6875 -7.34375 L 1.6875 -3 C 1.738281 -2.5625 1.925781 -2.226562 2.25 -2 C 2.582031 -1.769531 2.953125 -1.65625 3.359375 -1.65625 C 3.648438 -1.65625 3.921875 -1.703125 4.171875 -1.796875 C 4.429688 -1.890625 4.640625 -2.035156 4.796875 -2.234375 C 4.953125 -2.441406 5.03125 -2.695312 5.03125 -3 L 5.03125 -8.875 C 5.03125 -8.9375 5.070312 -8.96875 5.15625 -8.96875 Z M 6.625 -8.96875 "/></g></g></g><g fill="#03798e" fill-opacity="1"><g transform="translate(29.236307, 42.38373)"><g><path d="M 1.59375 -8.96875 C 2.03125 -8.96875 2.488281 -8.9375 2.96875 -8.875 C 3.457031 -8.820312 3.929688 -8.707031 4.390625 -8.53125 C 4.847656 -8.363281 5.257812 -8.113281 5.625 -7.78125 C 6 -7.457031 6.296875 -7.023438 6.515625 -6.484375 C 6.734375 -5.953125 6.84375 -5.285156 6.84375 -4.484375 C 6.84375 -3.710938 6.734375 -3.0625 6.515625 -2.53125 C 6.296875 -2.007812 6.003906 -1.582031 5.640625 -1.25 C 5.273438 -0.914062 4.863281 -0.65625 4.40625 -0.46875 C 3.945312 -0.289062 3.472656 -0.164062 2.984375 -0.09375 C 2.503906 -0.03125 2.039062 0 1.59375 0 L 0.125 0 C 0.0390625 0 0 -0.03125 0 -0.09375 L 0 -3.625 L 1.71875 -3.625 L 1.71875 -1.65625 C 1.9375 -1.644531 2.191406 -1.644531 2.484375 -1.65625 C 2.773438 -1.675781 3.070312 -1.734375 3.375 -1.828125 C 3.6875 -1.921875 3.972656 -2.066406 4.234375 -2.265625 C 4.503906 -2.472656 4.71875 -2.753906 4.875 -3.109375 C 5.03125 -3.472656 5.109375 -3.929688 5.109375 -4.484375 C 5.109375 -5.191406 4.960938 -5.757812 4.671875 -6.1875 C 4.378906 -6.625 3.972656 -6.929688 3.453125 -7.109375 C 2.941406 -7.296875 2.363281 -7.375 1.71875 -7.34375 L 1.71875 -5.34375 L 0 -5.34375 L 0 -8.875 C 0 -8.9375 0.0390625 -8.96875 0.125 -8.96875 Z M 1.59375 -8.96875 "/></g></g></g><g fill="#03798e" fill-opacity="1"><g transform="translate(36.425027, 42.38373)"><g><path d="M 1.59375 -8.96875 C 2.03125 -8.96875 2.488281 -8.9375 2.96875 -8.875 C 3.457031 -8.820312 3.929688 -8.707031 4.390625 -8.53125 C 4.847656 -8.363281 5.257812 -8.113281 5.625 -7.78125 C 6 -7.457031 6.296875 -7.023438 6.515625 -6.484375 C 6.734375 -5.953125 6.84375 -5.285156 6.84375 -4.484375 C 6.84375 -3.710938 6.734375 -3.0625 6.515625 -2.53125 C 6.296875 -2.007812 6.003906 -1.582031 5.640625 -1.25 C 5.273438 -0.914062 4.863281 -0.65625 4.40625 -0.46875 C 3.945312 -0.289062 3.472656 -0.164062 2.984375 -0.09375 C 2.503906 -0.03125 2.039062 0 1.59375 0 L 0.125 0 C 0.0390625 0 0 -0.03125 0 -0.09375 L 0 -3.625 L 1.71875 -3.625 L 1.71875 -1.65625 C 1.9375 -1.644531 2.191406 -1.644531 2.484375 -1.65625 C 2.773438 -1.675781 3.070312 -1.734375 3.375 -1.828125 C 3.6875 -1.921875 3.972656 -2.066406 4.234375 -2.265625 C 4.503906 -2.472656 4.71875 -2.753906 4.875 -3.109375 C 5.03125 -3.472656 5.109375 -3.929688 5.109375 -4.484375 C 5.109375 -5.191406 4.960938 -5.757812 4.671875 -6.1875 C 4.378906 -6.625 3.972656 -6.929688 3.453125 -7.109375 C 2.941406 -7.296875 2.363281 -7.375 1.71875 -7.34375 L 1.71875 -5.34375 L 0 -5.34375 L 0 -8.875 C 0 -8.9375 0.0390625 -8.96875 0.125 -8.96875 Z M 1.59375 -8.96875 "/></g></g></g><g fill="#03798e" fill-opacity="1"><g transform="translate(43.613747, 42.38373)"><g><path d="M 4.84375 -1.671875 C 4.925781 -1.671875 4.96875 -1.632812 4.96875 -1.5625 L 4.96875 -0.09375 C 4.96875 -0.03125 4.925781 0 4.84375 0 L 0.125 0 C 0.0390625 0 0 -0.03125 0 -0.09375 L 0 -1.671875 Z M 1.71875 -3.390625 L 0 -3.390625 L 0 -8.875 C 0 -8.9375 0.0390625 -8.96875 0.125 -8.96875 L 1.609375 -8.96875 C 1.679688 -8.96875 1.71875 -8.9375 1.71875 -8.875 Z M 1.71875 -3.390625 "/></g></g></g><g fill="#03798e" fill-opacity="1"><g transform="translate(48.839863, 42.38373)"><g><path d="M 4.265625 -1.671875 L 4.265625 0 L 0.125 0 C 0.0390625 0 0 -0.03125 0 -0.09375 L 0 -8.875 C 0 -8.9375 0.0390625 -8.96875 0.125 -8.96875 L 4.265625 -8.96875 L 4.265625 -7.34375 L 1.71875 -7.34375 L 1.71875 -5.3125 L 5.234375 -5.3125 C 5.316406 -5.3125 5.359375 -5.28125 5.359375 -5.21875 L 5.359375 -3.796875 C 5.359375 -3.722656 5.316406 -3.6875 5.234375 -3.6875 L 1.71875 -3.6875 L 1.71875 -1.671875 Z M 4.265625 -1.671875 "/></g></g></g><g fill="#03798e" fill-opacity="1"><g transform="translate(54.469715, 42.38373)"><g><path d="M 4.125 -4.984375 C 4.59375 -4.765625 4.953125 -4.445312 5.203125 -4.03125 C 5.453125 -3.613281 5.578125 -3.140625 5.578125 -2.609375 C 5.578125 -2.046875 5.441406 -1.570312 5.171875 -1.1875 C 4.910156 -0.800781 4.566406 -0.503906 4.140625 -0.296875 C 3.722656 -0.0976562 3.273438 0 2.796875 0 C 2.796875 0 2.789062 0 2.78125 0 L 2.78125 -1.609375 C 2.789062 -1.609375 2.796875 -1.609375 2.796875 -1.609375 C 3.097656 -1.609375 3.359375 -1.703125 3.578125 -1.890625 C 3.804688 -2.078125 3.921875 -2.316406 3.921875 -2.609375 C 3.921875 -2.835938 3.859375 -3.03125 3.734375 -3.1875 C 3.617188 -3.34375 3.472656 -3.460938 3.296875 -3.546875 C 3.128906 -3.640625 2.960938 -3.691406 2.796875 -3.703125 C 2.753906 -3.703125 2.601562 -3.710938 2.34375 -3.734375 C 2.082031 -3.765625 1.785156 -3.851562 1.453125 -4 C 0.992188 -4.21875 0.632812 -4.519531 0.375 -4.90625 C 0.125 -5.289062 0 -5.742188 0 -6.265625 C 0 -6.828125 0.128906 -7.3125 0.390625 -7.71875 C 0.660156 -8.125 1.007812 -8.429688 1.4375 -8.640625 C 1.863281 -8.859375 2.316406 -8.96875 2.796875 -8.96875 C 3.304688 -8.96875 3.765625 -8.859375 4.171875 -8.640625 C 4.585938 -8.429688 4.914062 -8.132812 5.15625 -7.75 C 5.40625 -7.375 5.535156 -6.929688 5.546875 -6.421875 C 5.546875 -6.398438 5.53125 -6.378906 5.5 -6.359375 C 5.476562 -6.335938 5.453125 -6.328125 5.421875 -6.328125 L 4.015625 -6.328125 C 3.984375 -6.328125 3.953125 -6.335938 3.921875 -6.359375 C 3.898438 -6.378906 3.890625 -6.398438 3.890625 -6.421875 C 3.878906 -6.742188 3.765625 -6.976562 3.546875 -7.125 C 3.335938 -7.28125 3.085938 -7.359375 2.796875 -7.359375 C 2.484375 -7.359375 2.21875 -7.265625 2 -7.078125 C 1.78125 -6.898438 1.671875 -6.628906 1.671875 -6.265625 C 1.671875 -5.941406 1.785156 -5.695312 2.015625 -5.53125 C 2.242188 -5.363281 2.503906 -5.28125 2.796875 -5.28125 C 2.816406 -5.28125 2.890625 -5.273438 3.015625 -5.265625 C 3.140625 -5.265625 3.300781 -5.242188 3.5 -5.203125 C 3.695312 -5.160156 3.90625 -5.085938 4.125 -4.984375 Z M 4.125 -4.984375 "/></g></g></g><g fill="#03798e" fill-opacity="1"><g transform="translate(60.33329, 42.38373)"><g/></g></g><path stroke-linecap="butt" transform="matrix(0.75, 0, 0, 0.75, 7.560502, 47.139377)" fill="none" stroke-linejoin="miter" d="M -0.00254402 1.501664 L 23.966208 1.501664 " stroke="#ffa132" stroke-width="3" stroke-opacity="1" stroke-miterlimit="4"/><path stroke-linecap="butt" transform="matrix(0, 0.75, -0.75, 0, 9.749121, 31.134609)" fill="none" stroke-linejoin="miter" d="M -0.00239589 1.498828 L 23.409064 1.498828 " stroke="#03798e" stroke-width="3" stroke-opacity="1" stroke-miterlimit="4"/></svg>